HIERARCHY
ROOT Hips
{
	OFFSET -3.958830 18.904000 13.208200
	CHANNELS 6 Xposition Yposition Zposition Zrotation Yrotation Xrotation 
	JOINT LHipJoint
	{
		OFFSET 0.000000 0.000000 0.000000
		CHANNELS 3 Zrotation Yrotation Xrotation
		JOINT LeftUpLeg
		{
			OFFSET 1.800000 -1.400000 0.085000
			CHANNELS 3 Zrotation Yrotation Xrotation
			JOINT LeftLeg
			{
				OFFSET 2.215000 -6.000000 0.000000
				CHANNELS 3 Zrotation Yrotation Xrotation
				JOINT LeftFoot
				{
					OFFSET 2.500000 -6.900000 0.000000
					CHANNELS 3 Zrotation Yrotation Xrotation
					JOINT LeftToeBase
					{
						OFFSET 0.200000 -0.500000 1.950000
						CHANNELS 3 Zrotation Yrotation Xrotation
						End Site
						{
							OFFSET 0.000000 0.000000 0.000000
						}
					}
				}
			}
		}
	}
	JOINT RHipJoint
	{
		OFFSET 0.000000 0.000000 0.000000
		CHANNELS 3 Zrotation Yrotation Xrotation
		JOINT RightUpLeg
		{
			OFFSET -1.800000 -1.400000 0.085000
			CHANNELS 3 Zrotation Yrotation Xrotation
			JOINT RightLeg
			{
				OFFSET -2.215000 -6.000000 0.000000
				CHANNELS 3 Zrotation Yrotation Xrotation
				JOINT RightFoot
				{
					OFFSET -2.500000 -6.900000 0.000000
					CHANNELS 3 Zrotation Yrotation Xrotation
					JOINT RightToeBase
					{
						OFFSET -0.200000 -0.500000 1.950000
						CHANNELS 3 Zrotation Yrotation Xrotation
						End Site
						{
							OFFSET 0.000000 0.000000 0.000000
						}
					}
				}
			}
		}
	}
	JOINT LowerBack
	{
		OFFSET 0.000000 0.000000 0.000000
		CHANNELS 3 Zrotation Yrotation Xrotation
		JOINT Spine
		{
			OFFSET -0.087000 1.940000 -0.288900
			CHANNELS 3 Zrotation Yrotation Xrotation
			JOINT Spine1
			{
				OFFSET 0.000000 1.950000 0.060000
				CHANNELS 3 Zrotation Yrotation Xrotation
				JOINT Neck
				{
					OFFSET 0.000000 0.000000 0.000000
					CHANNELS 3 Zrotation Yrotation Xrotation
					JOINT Neck1
					{
						OFFSET 0.000000 1.600000 0.340000
						CHANNELS 3 Zrotation Yrotation Xrotation
						JOINT Head
						{
							OFFSET 0.000000 1.667000 -0.240000
							CHANNELS 3 Zrotation Yrotation Xrotation
							End Site
							{
								OFFSET 0.000000 0.000000 0.000000
							}
						}
					}
				}
				JOINT LeftShoulder
				{
					OFFSET 0.000000 0.000000 0.000000
					CHANNELS 3 Zrotation Yrotation Xrotation
					JOINT LeftArm
					{
						OFFSET 2.700000 1.550000 -0.730000
						CHANNELS 3 Zrotation Yrotation Xrotation
						JOINT LeftForeArm
						{
							OFFSET 5.450000 0.000000 0.000000
							CHANNELS 3 Zrotation Yrotation Xrotation
							JOINT LeftHand
							{
								OFFSET 3.450000 0.000000 0.000000
								CHANNELS 3 Zrotation Yrotation Xrotation
								JOINT LeftHandIndex1
								{
									OFFSET 0.750000 0.000000 0.000000
									CHANNELS 3 Zrotation Yrotation Xrotation
									End Site
									{
										OFFSET 0.000000 0.000000 0.000000
									}
								}
							}
						}
					}
				}
				JOINT RightShoulder
				{
					OFFSET 0.000000 0.000000 0.000000
					CHANNELS 3 Zrotation Yrotation Xrotation
					JOINT RightArm
					{
						OFFSET -2.700000 1.550000 -0.730000
						CHANNELS 3 Zrotation Yrotation Xrotation
						JOINT RightForeArm
						{
							OFFSET -5.450000 0.000000 0.000000
							CHANNELS 3 Zrotation Yrotation Xrotation
							JOINT RightHand
							{
								OFFSET -3.450000 0.000000 0.000000
								CHANNELS 3 Zrotation Yrotation Xrotation
								JOINT RightHandIndex1
								{
									OFFSET -0.750000 0.000000 0.000000
									CHANNELS 3 Zrotation Yrotation Xrotation
									End Site
									{
										OFFSET 0.000000 0.000000 0.000000
									}
								}
							}
						}
					}
				}
			}
		}
	}
}
MOTION
Frames: 5
Frame Time: 0.016667
0.315250 12.903350 -4.173190 -61.116770 -58.646752 13.768266 -16.508855 8.214684 5.968877 -36.185281 -30.974195 -52.431062 114.527393 -35.108954 59.784781 3.406235 18.616310 -1.032079 0.564150 0.392850 0.789460 18.059202 -4.819838 6.177917 -63.126357 13.063712 -32.081164 125.622892 -33.837984 14.074578 -2.587266 -9.733863 1.101369 0.164130 -0.202150 -0.029260 -3.317841 -3.162661 -11.335272 3.638511 6.268369 66.254218 -13.272746 10.629991 20.247694 10.850699 6.025934 -20.826611 7.424899 -0.458669 74.286298 -0.223510 1.000780 -10.756340 -25.280746 -33.909563 14.095460 -23.181935 -3.537352 1.345510 3.826705 5.384518 -0.669441 -3.515624 2.382031 0.747150 -0.277550 0.355130 -0.085240 1.615950 39.728215 5.270007 -1.948467 12.906626 -26.399166 -71.194244 34.545854 -26.270974 2.937368 -1.424760 -0.146110 0.363430 -0.109800 -0.268930 
0.321900 12.903190 -4.119850 -63.945639 -59.759544 14.178215 -16.432673 8.544654 6.002159 -31.699057 -30.038785 -52.113602 109.063445 -37.756529 66.643848 3.606233 19.627175 -1.274280 0.619340 0.411270 0.870470 18.026873 -5.409535 5.647541 -59.468201 13.826895 -34.799448 116.657919 -44.346349 21.700630 -2.778382 -10.490572 0.852558 0.150050 -0.281450 0.007830 -3.349801 -3.075348 -11.092736 4.401566 5.198511 68.270818 -13.047543 10.120747 19.657741 10.480864 6.612779 -21.653035 8.001720 -1.336472 77.058396 0.296150 0.869000 -12.785090 -25.309188 -34.712430 14.104113 -26.695695 -2.549409 0.865167 5.549358 4.905890 -0.560858 -3.446826 2.435180 0.844570 -0.341980 0.433180 -0.109440 2.418667 39.671076 6.855483 1.987164 10.321121 -28.101217 -74.296271 36.155699 -28.630420 2.951209 -1.402763 -0.118970 0.336970 -0.122160 -0.306100 
0.340640 12.956030 -4.006690 -70.459552 -59.940681 18.405344 -16.238067 8.570821 6.023643 -24.250145 -28.344577 -51.278820 102.332008 -40.396918 73.384811 3.795833 20.592788 -1.561263 0.792170 0.685660 0.898600 18.103951 -5.904938 5.456684 -52.615513 16.049180 -36.470413 92.474329 -53.522371 39.183733 -2.988726 -11.571677 0.480006 0.296700 -0.382850 0.030180 -3.722838 -2.555501 -10.897741 8.575122 0.388662 69.228215 -15.280313 8.922411 22.501902 10.748062 6.040069 -21.854597 5.248560 1.124896 78.708552 3.534390 1.239590 -16.955150 -28.235316 -34.991438 13.231565 -25.301300 -3.641632 0.614658 7.391888 4.708175 -0.541494 -3.400316 2.529231 0.855830 -0.406450 0.523340 -0.087350 4.703443 38.074374 7.213400 6.925093 10.901393 -28.271581 -71.618072 34.383511 -27.646246 2.811129 -1.537975 -0.023610 0.296480 -0.184270 -0.280190 
0.303010 12.980840 -3.899020 -78.116816 -60.469391 25.755501 -16.111664 8.340040 5.922564 -13.822435 -27.109524 -51.375074 88.136728 -43.110000 89.278625 4.331562 23.114956 -1.974221 1.005370 0.945640 1.064630 18.230148 -5.722291 5.743939 -46.202520 17.366350 -39.891408 61.326110 -53.776831 61.265850 -3.550361 -14.048657 -0.157013 0.462370 -0.485240 -0.046200 -3.922585 -2.391840 -10.951556 11.181990 -3.587628 68.014871 -16.108083 7.665881 24.296885 11.085784 4.370170 -21.742863 0.009563 4.327020 81.268895 3.523180 1.181710 -22.250210 -30.334910 -34.543166 12.182554 -26.730665 -4.226067 -0.362281 9.925336 2.520861 -0.641815 -3.220176 2.524217 0.933790 -0.527160 0.645310 -0.003010 6.632367 37.340235 7.770619 14.839406 13.092887 -28.026986 -68.502967 32.124317 -26.893457 2.637667 -1.554145 -0.024260 0.424490 -0.335640 -0.285040 
0.269540 12.969840 -3.816420 -85.432893 -62.126715 32.126547 -16.022803 8.604480 5.963950 -5.132736 -23.467275 -49.803475 72.519199 -41.713135 106.349708 4.902593 25.590783 -2.366705 1.207760 1.182460 1.202800 18.282581 -6.099640 5.435054 -38.262275 17.932267 -42.899545 31.970177 -43.711813 80.011459 -3.894497 -16.216237 -0.746843 0.561480 -0.648220 0.005970 -3.995542 -2.169266 -10.724158 13.276548 -5.584389 67.730261 -16.753496 7.968659 24.366989 11.425720 4.698146 -22.093112 0.307917 3.355408 84.990086 2.625060 0.418480 -25.197710 -33.763269 -33.986161 11.277147 -25.353852 -6.732932 -1.402153 12.401209 1.829851 -0.834783 -3.136309 2.669036 0.953790 -0.621020 0.782090 0.040320 9.423237 36.509635 8.101130 20.532308 13.640689 -26.283709 -59.470360 28.369344 -21.680851 2.571804 -1.688440 0.100990 0.343240 -0.471150 -0.273250 
